<svg width="7590" height="1972" viewBox="0 0 7590 1972" fill="none" xmlns="http://www.w3.org/2000/svg">
<path fill-rule="evenodd" clip-rule="evenodd" d="M988.937 74.6159C992.104 71.2309 1061.17 -9.99007 1066.46 23.5749C1079.84 108.589 891.517 522.529 754.437 808.017C625.3 730.501 524.07 636.947 411.583 536.23C343.874 475.605 258.062 400.215 191.995 332.306C188.041 327.873 184.081 323.467 180.114 319.114C160.301 297.384 137.83 273.779 106.059 271.688C54.4461 268.29 20.455 289.311 0.27002 345.187L0 385.674C4.465 411.742 32.6982 443.879 60.6562 471.286C264.969 705.237 457.725 1067.5 425.423 1382.86C419.719 1438.57 397.131 1505.37 405.57 1557.45L409.279 1569.7C436.52 1640.71 518.746 1655 575.874 1601.09C609.562 1569.3 671.17 1433.82 692.095 1388.23C723.987 1318.73 767.82 1226.18 792.677 1156C801.457 1131.21 814.029 1094.05 829.087 1048.08C994.904 1105.01 1204.1 1138.71 1359.76 1078.82C1527.82 1014.16 1522.65 877.453 1385.35 781.519C1293.4 717.271 1165.08 677.104 1056.52 649.289C1114.5 673.626 1170.11 699.08 1224.79 730.272C1271.89 757.14 1492.53 896.404 1385.12 965.117C1281.77 1031.24 1066.76 969.163 964.08 924.464C932.783 910.841 906.489 897.364 881.624 883.436C976.873 577.819 1101.83 139.05 1086.31 31.405C1074.22 -52.456 1001.74 56.1149 988.933 74.6169L988.937 74.6159ZM670.97 979.247C652.753 1016.03 638.135 1045.13 628.705 1063.66C619.445 1081.85 610.43 1100.81 601.576 1120.21C587.326 1044.4 564.518 967.326 535.121 891.066C578.52 923.327 623.716 953.269 670.972 979.247H670.97Z" fill="#B4B9C3"/>
<path d="M1571.52 1634V870.364H1783.31V1634H1571.52ZM1677.91 771.926C1646.42 771.926 1619.41 761.486 1596.87 740.605C1574.67 719.393 1563.56 694.038 1563.56 664.54C1563.56 635.373 1574.67 610.349 1596.87 589.469C1619.41 568.257 1646.42 557.651 1677.91 557.651C1709.4 557.651 1736.24 568.257 1758.45 589.469C1780.99 610.349 1792.26 635.373 1792.26 664.54C1792.26 694.038 1780.99 719.393 1758.45 740.605C1736.24 761.486 1709.4 771.926 1677.91 771.926ZM1872.94 1634V615.818H2084.73V998.631H2091.19C2100.47 978.081 2113.9 957.201 2131.46 935.989C2149.36 914.445 2172.56 896.547 2201.06 882.295C2229.9 867.712 2265.7 860.42 2308.45 860.42C2364.13 860.42 2415.51 875.004 2462.57 904.17C2509.63 933.006 2547.25 976.59 2575.43 1034.92C2603.6 1092.93 2617.68 1165.68 2617.68 1253.18C2617.68 1338.36 2603.93 1410.28 2576.42 1468.94C2549.24 1527.28 2512.12 1571.52 2465.06 1601.68C2418.32 1631.51 2365.96 1646.43 2307.95 1646.43C2266.86 1646.43 2231.89 1639.63 2203.05 1626.05C2174.55 1612.46 2151.18 1595.39 2132.95 1574.84C2114.72 1553.96 2100.8 1532.91 2091.19 1511.7H2081.75V1634H1872.94ZM2080.25 1252.18C2080.25 1297.59 2086.55 1337.2 2099.15 1371C2111.74 1404.81 2129.97 1431.16 2153.83 1450.05C2177.7 1468.61 2206.7 1477.89 2240.84 1477.89C2275.31 1477.89 2304.47 1468.45 2328.34 1449.55C2352.2 1430.33 2370.26 1403.82 2382.53 1370.01C2395.12 1335.87 2401.42 1296.59 2401.42 1252.18C2401.42 1208.1 2395.29 1169.32 2383.02 1135.85C2370.76 1102.37 2352.7 1076.19 2328.83 1057.3C2304.97 1038.4 2275.64 1028.96 2240.84 1028.96C2206.37 1028.96 2177.2 1038.07 2153.34 1056.3C2129.81 1074.53 2111.74 1100.38 2099.15 1133.86C2086.55 1167.33 2080.25 1206.77 2080.25 1252.18ZM3023.01 1648.91C2944.46 1648.91 2876.85 1633.01 2820.17 1601.19C2763.83 1569.04 2720.41 1523.63 2689.92 1464.97C2659.42 1405.97 2644.18 1336.2 2644.18 1255.66C2644.18 1177.11 2659.42 1108.17 2689.92 1048.84C2720.41 989.516 2763.33 943.28 2818.68 910.136C2874.36 876.992 2939.66 860.42 3014.56 860.42C3064.94 860.42 3111.84 868.541 3155.26 884.781C3199.01 900.69 3237.12 924.72 3269.6 956.869C3302.42 989.019 3327.94 1029.45 3346.17 1078.18C3364.4 1126.57 3373.51 1183.24 3373.51 1248.2V1306.37H2728.69V1175.12H3174.15C3174.15 1144.63 3167.52 1117.62 3154.26 1094.09C3141.01 1070.55 3122.61 1052.16 3099.08 1038.9C3075.88 1025.31 3048.87 1018.52 3018.04 1018.52C2985.89 1018.52 2957.39 1025.97 2932.53 1040.89C2908 1055.47 2888.78 1075.19 2874.86 1100.05C2860.94 1124.58 2853.81 1151.92 2853.48 1182.08V1306.87C2853.48 1344.65 2860.44 1377.3 2874.36 1404.81C2888.61 1432.32 2908.67 1453.53 2934.52 1468.45C2960.37 1483.36 2991.03 1490.82 3026.49 1490.82C3050.03 1490.82 3071.57 1487.5 3091.12 1480.88C3110.68 1474.25 3127.42 1464.3 3141.34 1451.05C3155.26 1437.79 3165.86 1421.55 3173.15 1402.32L3369.04 1415.25C3359.09 1462.31 3338.71 1503.41 3307.88 1538.55C3277.39 1573.35 3237.95 1600.52 3189.56 1620.08C3141.5 1639.3 3085.99 1648.91 3023.01 1648.91ZM3792.63 1634H3431.7V615.818H3795.62C3898.03 615.818 3986.2 636.202 4060.11 676.969C4134.02 717.404 4190.86 775.572 4230.63 851.472C4270.74 927.371 4290.79 1018.19 4290.79 1123.91C4290.79 1229.98 4270.74 1321.12 4230.63 1397.35C4190.86 1473.58 4133.69 1532.08 4059.11 1572.85C3984.87 1613.62 3896.04 1634 3792.63 1634ZM3646.97 1449.55H3783.69C3847.32 1449.55 3900.85 1438.29 3944.27 1415.75C3988.02 1392.88 4020.83 1357.58 4042.71 1309.85C4064.91 1261.79 4076.02 1199.81 4076.02 1123.91C4076.02 1048.68 4064.91 987.196 4042.71 939.469C4020.83 891.741 3988.18 856.609 3944.77 834.071C3901.35 811.533 3847.82 800.264 3784.18 800.264H3646.97V1449.55ZM4707.3 1648.91C4630.08 1648.91 4563.29 1632.51 4506.95 1599.7C4450.93 1566.55 4407.68 1520.48 4377.19 1461.49C4346.7 1402.16 4331.45 1333.38 4331.45 1255.16C4331.45 1176.28 4346.7 1107.34 4377.19 1048.35C4407.68 989.019 4450.93 942.949 4506.95 910.136C4563.29 876.992 4630.08 860.42 4707.3 860.42C4784.53 860.42 4851.15 876.992 4907.16 910.136C4963.51 942.949 5006.92 989.019 5037.42 1048.35C5067.91 1107.34 5083.16 1176.28 5083.16 1255.16C5083.16 1333.38 5067.91 1402.16 5037.42 1461.49C5006.92 1520.48 4963.51 1566.55 4907.16 1599.7C4851.15 1632.51 4784.53 1648.91 4707.3 1648.91ZM4708.3 1484.85C4743.43 1484.85 4772.76 1474.91 4796.29 1455.02C4819.83 1434.8 4837.56 1407.3 4849.49 1372.49C4861.75 1337.69 4867.89 1298.09 4867.89 1253.67C4867.89 1209.26 4861.75 1169.65 4849.49 1134.85C4837.56 1100.05 4819.83 1072.54 4796.29 1052.32C4772.76 1032.11 4743.43 1022 4708.3 1022C4672.83 1022 4643 1032.11 4618.81 1052.32C4594.95 1072.54 4576.88 1100.05 4564.62 1134.85C4552.69 1169.65 4546.72 1209.26 4546.72 1253.67C4546.72 1298.09 4552.69 1337.69 4564.62 1372.49C4576.88 1407.3 4594.95 1434.8 4618.81 1455.02C4643 1474.91 4672.83 1484.85 4708.3 1484.85ZM5481.9 1648.91C5403.68 1648.91 5336.4 1632.34 5280.05 1599.2C5224.04 1565.72 5180.95 1519.32 5150.79 1459.99C5120.96 1400.67 5106.04 1332.39 5106.04 1255.16C5106.04 1176.95 5121.13 1108.34 5151.29 1049.34C5181.78 990.013 5225.03 943.777 5281.04 910.633C5337.06 877.158 5403.68 860.42 5480.9 860.42C5547.52 860.42 5605.86 872.518 5655.9 896.713C5705.95 920.908 5745.56 954.881 5774.72 998.631C5803.89 1042.38 5819.97 1093.75 5822.95 1152.75H5623.09C5617.46 1114.63 5602.54 1083.98 5578.35 1060.78C5554.48 1037.24 5523.16 1025.48 5484.38 1025.48C5451.57 1025.48 5422.9 1034.43 5398.37 1052.32C5374.18 1069.89 5355.29 1095.58 5341.7 1129.38C5328.11 1163.19 5321.31 1204.12 5321.31 1252.18C5321.31 1300.9 5327.94 1342.33 5341.2 1376.47C5354.79 1410.61 5373.85 1436.63 5398.37 1454.53C5422.9 1472.42 5451.57 1481.37 5484.38 1481.37C5508.58 1481.37 5530.29 1476.4 5549.51 1466.46C5569.07 1456.51 5585.14 1442.1 5597.74 1423.2C5610.66 1403.98 5619.11 1380.95 5623.09 1354.1H5822.95C5819.63 1412.43 5803.72 1463.81 5775.22 1508.22C5747.05 1552.3 5708.1 1586.77 5658.39 1611.63C5608.67 1636.49 5549.84 1648.91 5481.9 1648.91ZM6280.73 870.364V1029.45H5820.86V870.364H6280.73ZM5925.26 687.409H6137.05V1399.34C6137.05 1418.9 6140.03 1434.14 6146 1445.08C6151.96 1455.69 6160.25 1463.14 6170.86 1467.45C6181.79 1471.76 6194.39 1473.91 6208.64 1473.91C6218.58 1473.91 6228.53 1473.09 6238.47 1471.43C6248.41 1469.44 6256.04 1467.95 6261.34 1466.95L6294.65 1624.55C6284.04 1627.87 6269.13 1631.68 6249.9 1635.99C6230.68 1640.63 6207.31 1643.45 6179.8 1644.44C6128.76 1646.43 6084.02 1639.63 6045.57 1624.06C6007.46 1608.48 5977.79 1584.28 5956.58 1551.47C5935.37 1518.66 5924.93 1477.23 5925.26 1427.18V687.409ZM6671.51 1648.91C6594.29 1648.91 6527.5 1632.51 6471.16 1599.7C6415.15 1566.55 6371.89 1520.48 6341.4 1461.49C6310.91 1402.16 6295.66 1333.38 6295.66 1255.16C6295.66 1176.28 6310.91 1107.34 6341.4 1048.35C6371.89 989.019 6415.15 942.949 6471.16 910.136C6527.5 876.992 6594.29 860.42 6671.51 860.42C6748.74 860.42 6815.36 876.992 6871.37 910.136C6927.72 942.949 6971.14 989.019 7001.63 1048.35C7032.12 1107.34 7047.37 1176.28 7047.37 1255.16C7047.37 1333.38 7032.12 1402.16 7001.63 1461.49C6971.14 1520.48 6927.72 1566.55 6871.37 1599.7C6815.36 1632.51 6748.74 1648.91 6671.51 1648.91ZM6672.51 1484.85C6707.64 1484.85 6736.97 1474.91 6760.51 1455.02C6784.04 1434.8 6801.77 1407.3 6813.7 1372.49C6825.96 1337.69 6832.1 1298.09 6832.1 1253.67C6832.1 1209.26 6825.96 1169.65 6813.7 1134.85C6801.77 1100.05 6784.04 1072.54 6760.51 1052.32C6736.97 1032.11 6707.64 1022 6672.51 1022C6637.04 1022 6607.21 1032.11 6583.02 1052.32C6559.16 1072.54 6541.09 1100.05 6528.83 1134.85C6516.9 1169.65 6510.93 1209.26 6510.93 1253.67C6510.93 1298.09 6516.9 1337.69 6528.83 1372.49C6541.09 1407.3 6559.16 1434.8 6583.02 1455.02C6607.21 1474.91 6637.04 1484.85 6672.51 1484.85ZM7101.08 1634V870.364H7306.41V1003.6H7314.36C7328.28 956.206 7351.65 920.411 7384.46 896.216C7417.27 871.689 7455.06 859.426 7497.81 859.426C7508.42 859.426 7519.85 860.089 7532.12 861.415C7544.38 862.741 7555.15 864.563 7564.43 866.883V1054.81C7554.49 1051.83 7540.73 1049.18 7523.17 1046.86C7505.6 1044.54 7489.53 1043.38 7474.94 1043.38C7443.79 1043.38 7415.95 1050.17 7391.42 1063.76C7367.23 1077.02 7348 1095.58 7333.75 1119.44C7319.83 1143.3 7312.87 1170.81 7312.87 1201.97V1634H7101.08Z" fill="#B4B9C3"/>
</svg>
